<svg xmlns="http://www.w3.org/2000/svg" viewBox="0 0 100 100"><g fill="none" fill-rule="evenodd"><path d="m7 10.3209811 43-10.3209811 43 9.75392865-1.7107266 3.00007055h-81.7325318m.7509507 2.3432629h79.3846154v8.7609138h-79.3846154zm0 72.4535273h79.3846154v5.8399885h-79.3846154zm82.6923077 8.0682881v4.3809225h-86l.00091489-4.3809225zm-80.1058582-69.4597349h74.3290579l.9542264.4869761.4775698 7.7869616.4775698 12.6529979v12.1688152l-.4775698 15.1688858-.0794428 10.2190486-1.3523534.4068998h-73.7729585l-1.4317962-.4068998-.5560994-10.2190486-.4784829-15.0878783v-12.1678841l.4784829-12.7349365.4364787-7.8288621z" fill="#fff"/><path d="m34 42.8318584c0-4.4616519 1.2299536-7.715708 3.6898608-9.7621681 2.4599073-2.0464602 6.1073559-3.0696903 10.942346-3.0696903 2.5447316 0 4.7183565.2581121 6.5208747.7743363s3.276342 1.2168141 4.4214712 2.1017699c1.1451292.8849557 1.972167 1.9081858 2.4811133 3.0696903.5089463 1.1615044.7634195 2.3875368.7634195 3.6780973 0 1.7699115-.5513585 3.3185841-1.6540756 4.6460177-1.102717 1.3274336-2.6719682 2.1386431-4.7077534 2.4336283v.1659292c1.6116633.221239 3.0218687.6729351 4.2306163 1.3550885 1.2087475.6821534 2.205434 1.5210177 2.9900596 2.5165929.7846256.9955753 1.3677932 2.0925517 1.749503 3.2909292.3817097 1.1983776.5725646 2.4244101.5725646 3.6780974 0 2.2492625-.3499006 4.1943215-1.0497018 5.835177-.6998012 1.6408554-1.6434725 2.9867256-2.8310139 4.0376106s-2.5871438 1.8344395-4.1988072 2.3506637c-1.6116633.5162242-3.3081511.7743363-5.0894632.7743363-2.5023194 0-4.5487077-.4332596-6.139165-1.2997788-1.5904572-.8665191-2.7886017-1.8344395-3.5944334-2.903761h-.0636183v13.4955752h-9.0337972zm13.359841 7.6880531v-4.9778761h1.6540755c3.2233267 0 4.8349901-1.6961652 4.8349901-5.0884956 0-1.4011799-.434725-2.488938-1.304175-3.2632743s-2.1736249-1.1615044-3.9125248-1.1615044c-2.0781975 0-3.6050365.5623156-4.5805169 1.6869469-.9754805 1.1246312-1.4632207 3.0512537-1.4632207 5.7798672v11.2831859c0 3.4660767.667992 6.0103244 2.0039761 7.6327433s3.1278993 2.4336283 5.3757456 2.4336283c.890656 0 1.7495029-.1198377 2.5765407-.3595132s1.5692512-.636062 2.2266402-1.1891593c.657389-.5530974 1.1875414-1.2629056 1.5904572-2.1294248.4029159-.8665192.6043738-1.9266224.6043738-3.1803097 0-2.7654868-.5195494-4.7013275-1.5586481-5.8075222-1.0390988-1.1061947-2.5765408-1.659292-4.6123261-1.659292z" fill="#2c2c2c" fill-rule="nonzero"/></g></svg>