<svg viewBox="0 0 203 232" xmlns="http://www.w3.org/2000/svg"><path d="m18.5 1.5c-.5.83333-1 1.66667-1.5 2.5 1 .33333 2 .66667 3 1 2 .66667 3.5 1.83333 4.5 3.5.5.8333 1 1.6667 1.5 2.5-1 .3333-2 .6667-3 1-2 .6667-3.6667 1.8333-5 3.5s-3.5 3.3333-6.5 5-5.33333 2.6667-7 3c-1.66666593.3333-2.83333 1-3.5 2-.66666593 1-.83333 3-.5 6 .33333407 3 3.5 4.3333 9.5 4s9.8333.1667 11.5 1.5 2.3333 4.6667 2 10 0 9.8333 1 13.5-.5 9.8333-4.5 18.5-5.6667 15.5-5 20.5 1.5 8 2.5 9 1 2.833 0 5.5c-.5 1.333-1 2.667-1.5 4 .5-.167 1-.333 1.5-.5s1-.333 1.5-.5v1.5c0 1 1 2.167 3 3.5s3.1667 4.667 3.5 10 1.3333 8 3 8 2.6667-.667 3-2 .8333-2 1.5-2 1.1667.667 1.5 2 1.3333 2 3 2 2.6667 1.333 3 4c.1667 1.333.3333 2.667.5 4 .6667-1.167 1.3333-2.333 2-3.5s1.3333-2.333 2-3.5c.3333 1.5.6667 3 1 4.5s.6667 3 1 4.5c.6667-.5 1.3333-1 2-1.5s1.3333-1 2-1.5v4.5 4.5c.3333-.5.6667-1 1-1.5s.6667-1 1-1.5c.3333 1.5.6667 3 1 4.5s.6667 3 1 4.5c.6667-.167 1.3333-.333 2-.5s1.3333-.333 2-.5c.1667 1 .3333 2 .5 3s.3333 2 .5 3c.3333-.333.6667-.667 1-1s.6667-.667 1-1v2.5c0 1.667.3333 2.667 1 3 .3333.167.6667.333 1 .5.1667-1 .3333-2 .5-3s.3333-2 .5-3c.3333 1.167.6667 2.333 1 3.5s.6667 2.333 1 3.5c0-.833 0-1.667 0-2.5s0-1.667 0-2.5c.3333.167.6667.333 1 .5s.6667.333 1 .5c.1667-.333.3333-.667.5-1s.3333-.667.5-1c1 3.667 2 7.333 3 11 2 7.333 2.8333 15.5 2.5 24.5s-1.1667 13.5-2.5 13.5-2.1667.667-2.5 2 .6667 2.5 3 3.5 4.1667 1.167 5.5.5c.6667-.333 1.3333-.667 2-1v1.5c0 1-.8333 1.667-2.5 2-.8333.167-1.6667.333-2.5.5.1667.833.3333 1.667.5 2.5.3333 1.667 2.1667 2.5 5.5 2.5h5c-.1667-7-.3333-14-.5-21-.3333-14-.1667-21.667.5-23 .3333-.667.6667-1.333 1-2 .3333.667.6667 1.333 1 2s.6667 1.333 1 2c.1667-1 .3333-2 .5-3 .3333-2 .8333-3 1.5-3h1c-.1667.667-.3333 1.333-.5 2s-.3333 1.333-.5 2c.3333-.167.6667-.333 1-.5s.6667-.333 1-.5c.3333.667.6667 1.333 1 2s.6667 1.333 1 2c0-1.333 0-2.667 0-4s0-2.667 0-4c.1667.833.3333 1.667.5 2.5.3333 1.667.8333 2.5 1.5 2.5h1c0-.833 0-1.667 0-2.5s0-1.667 0-2.5c.5.833 1 1.667 1.5 2.5s1 1.667 1.5 2.5c.167-1.333.333-2.667.5-4s.333-2.667.5-4c.5 1.667 1 3.333 1.5 5s1 3.333 1.5 5c.333-1.167.667-2.333 1-3.5s.667-2.333 1-3.5c.667 1 1.333 2 2 3s1.333 2 2 3c.333-.5.667-1 1-1.5.667-1 .833-3 .5-6s.667-5 3-6 3.833-2.167 4.5-3.5 1.333-2 2-2 1.167.667 1.5 2c.167.667.333 1.333.5 2 0-.833 0-1.667 0-2.5 0-1.667.667-3.167 2-4.5s2.333-2 3-2 1.167.833 1.5 2.5c.167.833.333 1.667.5 2.5.5-1.167 1-2.333 1.5-3.5 1-2.333 1.833-3.5 2.5-3.5s1.167 1.167 1.5 3.5.833 3.5 1.5 3.5h1c0-1 0-2 0-3 0-2 .833-3.833 2.5-5.5s2.5-3.5 2.5-5.5.333-3.167 1-3.5c.333-.167.667-.333 1-.5v3.5c0 2.333 1.667 3.833 5 4.5s5 4 5 10 .833 9.833 2.5 11.5 2.333 3.167 2 4.5-.167 2.167.5 2.5 1 2 1 5-1 7.167-3 12.5-3.5 8.333-4.5 9-2.333 3-4 7-3.5 6.167-5.5 6.5-3 1.333-3 3 1.667 2.667 5 3c1.667.167 3.333.333 5 .5-.333-.667-.667-1.333-1-2-.667-1.333-.5-2.5.5-3.5s3-1.333 6-1c1.5.167 3 .333 4.5.5 0-.5 0-1 0-1.5 0-1 1-2.167 3-3.5s5.167-7 9.5-17 7-15.167 8-15.5 1.333-2.167 1-5.5c-.167-1.667-.333-3.333-.5-5h2c1.333 0 2.333-.667 3-2s.667-3 0-5c-.333-1-.667-2-1-3 .833-.167 1.667-.333 2.5-.5 1.667-.333 2.333-1.5 2-3.5s0-3.5 1-4.5 1.5-3.833 1.5-8.5c0-2.333 0-4.667 0-7h2 2c-.333-5.333-.667-10.667-1-16s-.667-10.667-1-16c.333.167.667.333 1 .5.667.333 1.333.167 2-.5s.833-1.667.5-3c-.167-.667-.333-1.333-.5-2h1 1c-.333-3.667-.667-7.333-1-11-.667-7.3333-1.333-11.1667-2-11.5s-1.167-1.6667-1.5-4-1.667-3.6667-4-4-4.167-1.1667-5.5-2.5-3-2-5-2-3.833.6667-5.5 2-3.667 1.6667-6 1-4.5.1667-6.5 2.5-6 4.3333-12 6-11.833 2.3333-17.5 2-9.167-1-10.5-2-2.333-1.1667-3-.5-4.167 1-10.5 1-9.833-.3333-10.5-1-2-.8333-4-.5-4.1667-.1667-6.5-1.5-6.8333-1.6667-13.5-1-11-.1667-13-2.5-3.3333-7.5-4-15.5-.5-14.1667.5-18.5 0-9.5-3-15.5-5.6667-10.5-8-13.5-5-4.8333-8-5.5-7.3333-2.5-13-5.5-9-3.66667-10-2z" fill="#fff"/></svg>